<?xml version="1.0" standalone="no"?>
<!DOCTYPE svg PUBLIC "-//W3C//DTD SVG 20010904//EN"
 "http://www.w3.org/TR/2001/REC-SVG-20010904/DTD/svg10.dtd">
<svg version="1.0" xmlns="http://www.w3.org/2000/svg"
 width="1280.000000pt" height="889.000000pt" viewBox="0 0 1280.000000 889.000000"
 preserveAspectRatio="xMidYMid meet">
<metadata>
Created by potrace 1.15, written by Peter Selinger 2001-2017
</metadata>
<g transform="translate(0.000000,889.000000) scale(0.100000,-0.100000)"
fill="#000000" stroke="none">
<path d="M7555 8879 c-120 -15 -311 -55 -496 -104 -728 -195 -1541 -576 -2241
-1050 -192 -130 -1454 -1049 -1928 -1404 -446 -333 -789 -606 -931 -738 -117
-110 -236 -205 -439 -350 -85 -61 -182 -132 -214 -157 -33 -26 -65 -45 -70
-43 -6 2 -18 23 -26 47 -8 24 -22 46 -30 49 -8 3 -48 27 -87 53 -58 38 -73 53
-73 73 0 28 -25 45 -67 45 -15 0 -34 4 -42 9 -9 6 -28 -1 -60 -24 -25 -17 -90
-58 -144 -89 -53 -31 -112 -69 -130 -84 -17 -16 -63 -46 -102 -69 -79 -46
-136 -100 -159 -148 -9 -18 -18 -71 -20 -121 -3 -49 -6 -102 -8 -118 -3 -26 5
-36 40 -53 13 -5 -33 -51 -85 -83 -34 -22 -67 -49 -73 -59 -6 -13 -8 -52 -4
-104 8 -101 -3 -141 -57 -203 -66 -76 -73 -97 -71 -211 1 -82 -2 -110 -18
-145 -25 -55 -25 -95 0 -133 11 -16 20 -37 20 -46 0 -8 18 -52 40 -98 22 -46
45 -104 51 -129 12 -57 20 -66 89 -110 30 -20 61 -44 68 -54 7 -10 20 -18 28
-18 27 0 64 -32 106 -91 23 -33 55 -68 72 -79 38 -23 135 -40 231 -40 48 0 80
-6 102 -18 134 -74 251 -122 298 -122 30 0 66 33 113 103 58 87 58 86 71 120
13 33 34 35 58 4 42 -54 96 -60 172 -20 67 36 363 314 402 376 53 87 82 189
87 315 3 71 9 115 16 117 6 2 110 31 232 65 210 58 229 61 415 75 737 56 1114
29 1494 -106 117 -42 302 -132 398 -193 58 -37 58 -38 40 -58 -15 -17 -18 -39
-20 -132 -4 -243 -41 -510 -129 -916 -136 -632 -177 -921 -178 -1245 0 -179 5
-236 30 -346 5 -24 0 -30 -48 -57 -93 -53 -148 -129 -148 -202 0 -16 9 -53 20
-82 18 -46 20 -67 14 -158 -7 -122 4 -195 42 -281 47 -103 156 -186 296 -222
l57 -15 56 69 c57 70 102 103 128 93 19 -7 36 -49 46 -110 10 -73 13 -72 300
106 68 42 110 50 131 25 7 -9 12 -43 13 -80 0 -36 2 -65 6 -65 3 0 17 16 30
35 31 47 85 89 248 197 76 50 160 109 187 132 56 46 106 119 106 152 0 13 5
26 10 29 6 3 85 -19 176 -51 263 -90 328 -80 454 69 74 89 119 122 153 113 31
-7 46 -43 58 -139 6 -45 12 -84 15 -89 3 -4 26 -20 52 -35 40 -24 58 -28 123
-28 71 0 82 4 180 53 57 28 149 77 204 107 55 30 114 59 130 63 25 7 31 14 35
48 7 49 14 60 51 79 23 12 166 33 236 35 6 0 19 7 27 16 20 19 10 42 -40 95
-33 33 -34 36 -17 50 105 89 389 160 565 140 53 -5 77 -14 112 -39 152 -109
427 -158 580 -104 110 40 162 98 194 219 23 85 56 134 121 174 70 45 141 62
235 57 86 -5 131 -21 179 -66 23 -22 31 -24 45 -14 116 82 225 91 487 42 204
-39 301 -39 378 0 26 13 47 25 47 26 0 2 -11 24 -25 50 -14 26 -25 62 -25 81
0 158 284 257 390 136 29 -32 31 -33 57 -19 16 8 75 58 133 111 122 113 165
144 215 155 49 11 91 -4 138 -49 l38 -36 142 48 c78 27 236 85 351 129 l209
79 21 -25 c36 -42 86 -66 142 -66 97 0 184 59 224 152 28 66 25 158 -10 241
-15 36 -20 61 -14 67 6 6 39 3 92 -8 98 -20 118 -13 115 39 -18 333 -73 530
-179 648 -77 86 -184 125 -282 103 -27 -6 -44 -6 -48 0 -8 13 -51 220 -70 337
-35 218 -133 431 -420 911 -233 389 -279 472 -442 796 -366 725 -748 1294
-1261 1879 -430 490 -825 894 -1096 1120 -213 178 -301 235 -619 400 -331 173
-396 194 -606 200 -74 2 -171 -1 -215 -6z"/>
</g>
</svg>
